<svg version="1.2" xmlns="http://www.w3.org/2000/svg" viewBox="0 0 57 40" width="57" height="40"><defs><clipPath clipPathUnits="userSpaceOnUse" id="cp1"><path d="m-853-5361h1730v6762h-1730z"/></clipPath><clipPath clipPathUnits="userSpaceOnUse" id="cp2"><path d="m31.04 0.01h25.58v39.47h-25.58z"/></clipPath><clipPath clipPathUnits="userSpaceOnUse" id="cp3"><path d="m1 0.01h25.58v39.47h-25.58z"/></clipPath></defs><style>.a{fill:#284544}</style><g clip-path="url(#cp1)"><g clip-path="url(#cp2)"><path fill-rule="evenodd" class="a" d="m34.6 39.4c-0.8 0-1.5-0.2-2.1-0.6-0.7-0.4-1.4-1.3-1.4-3 0.1-2.4 2-3.5 3.5-4.3l0.4-0.2c1.9-1.1 3.3-2 4.6-3 2.3-2 3.5-3.8 3.4-4.3 0 0-0.1 0-0.4-0.1-0.3-0.2-0.8-0.2-1.3-0.2q-0.6-0.1-1.2-0.2c-5.5-1-9-5.1-9-10.7 0-7 5.7-12.8 12.8-12.8 7.1 0 12.7 5.6 12.7 12.8 0 8.3-4.2 19.9-16.2 24.9l-0.3 0.1c-1.4 0.6-3.6 1.6-5.5 1.6zm9.3-37.1c-5.8 0-10.5 4.7-10.5 10.5 0 4.5 2.6 7.6 7.2 8.5q0.4 0 0.9 0.1c0.6 0 1.2 0.1 1.9 0.3 1.4 0.5 1.7 1.4 1.8 1.9 0.4 2.2-2.4 5-4.2 6.4-1.3 1.1-2.8 2.2-4.8 3.3l-0.5 0.3c-1.4 0.7-2.2 1.2-2.3 2.2q0 0.8 0.4 1.1c0.7 0.4 2.5 0 5.4-1.2l0.3-0.1c10.9-4.6 14.8-15.2 14.8-22.8 0-5.9-4.6-10.5-10.4-10.5z"/></g><g clip-path="url(#cp3)"><path fill-rule="evenodd" class="a" d="m4.5 39.4c-0.8 0-1.5-0.2-2.2-0.6-0.6-0.4-1.3-1.3-1.3-3 0-2.4 2-3.5 3.5-4.3l0.4-0.2c1.9-1.1 3.3-2 4.5-3 2.4-2 3.6-3.8 3.4-4.3 0 0 0 0-0.3-0.1-0.4-0.2-0.8-0.2-1.3-0.2q-0.6-0.1-1.2-0.2c-5.6-1-9-5.1-9-10.7 0-7 5.7-12.8 12.7-12.8 7.2 0 12.8 5.6 12.8 12.8 0 8.3-4.3 19.9-16.3 24.9l-0.2 0.1c-1.4 0.6-3.6 1.6-5.5 1.6zm9.2-37.1c-5.7 0-10.4 4.7-10.4 10.5 0 4.5 2.6 7.6 7.1 8.5q0.5 0 1 0.1c0.6 0 1.2 0.1 1.9 0.3 1.3 0.5 1.7 1.4 1.8 1.9 0.4 2.2-2.4 5-4.2 6.4-1.3 1.1-2.9 2.2-4.9 3.3l-0.4 0.3c-1.4 0.7-2.3 1.2-2.3 2.2q0 0.8 0.3 1.1c1.1 0.7 4.4-0.7 5.4-1.2l0.3-0.1c11-4.6 14.9-15.2 14.9-22.8 0-5.9-4.6-10.5-10.5-10.5z"/></g></g></svg>